<svg xmlns="http://www.w3.org/2000/svg" width="27" height="20" viewBox="0 0 27 20"><g fill="none" fill-rule="evenodd" stroke="#FFF"><path stroke-width="1.5" d="M3.622 4.75L.904 19.25h19.474l2.718-14.5H3.622zm-.977-4l-.724 3.5h23.434l.724-3.5H2.645z"/><path fill="#FFF" fill-rule="nonzero" stroke-width=".3" d="M15.362 8.219c-.18-.23-.553-.23-.835 0l-2.435 1.993-1.55-1.993c-.18-.23-.553-.23-.835 0-.282.23-.365.604-.186.835l1.55 1.993-2.435 1.993c-.282.23-.365.603-.186.834a.47.47 0 0 0 .38.172.744.744 0 0 0 .455-.172l2.436-1.993 1.55 1.993a.47.47 0 0 0 .379.172.744.744 0 0 0 .455-.172c.282-.23.365-.604.186-.834l-1.55-1.993 2.436-1.993c.282-.231.364-.604.185-.835z"/></g></svg>