<svg xmlns="http://www.w3.org/2000/svg" width="19" height="20" viewBox="0 0 19 20"><path fill="#FFF" stroke="#1E8B51" stroke-width=".3" d="M18.692 15.76c-2.634-1.792-1.604-7.615-1.589-7.703.408-2.718-1.053-5.022-3.415-5.777l.078-.521C13.911.789 13.241 0 12.271 0c-.97 0-1.878.79-2.023 1.76l-.078.52c-2.589.756-4.742 3.064-5.153 5.807-.188 1.628-1.255 6.181-3.895 7.673-.355.2-.566.592-.517.96a.71.71 0 0 0 .728.62h5.11c.116 1.471 1.269 2.573 2.84 2.573 1.573 0 3.056-1.102 3.614-2.573h5.11c.381 0 .754-.254.914-.62.159-.368.065-.76-.23-.96zm-9.531-.127H3.686c2.47-2.877 3.019-7.37 3.042-7.576.359-2.389 2.595-4.333 4.985-4.333s4.042 1.944 3.688 4.304c-.042.23-.842 4.728.765 7.605H9.16z"/></svg>