<svg xmlns="http://www.w3.org/2000/svg" width="15" height="20" viewBox="0 0 15 20"><path fill="#FFF" d="M4.142 13.903L2.68 19.517 5.412 20l1.412-5.413c.128.006.254.02.383.02h.01c3.978-.005 7.215-3.285 7.215-7.31 0-1.95-.749-3.78-2.106-5.158A7.127 7.127 0 0 0 7.217 0C3.24.004.002 3.284 0 7.31a7.299 7.299 0 0 0 4.142 6.593zm3.065.012v-.691c-3.21 0-5.825-2.653-5.825-5.912.002-3.265 2.62-5.926 5.843-5.928a5.74 5.74 0 0 1 4.114 1.728 5.92 5.92 0 0 1 1.708 4.185c0 3.264-2.618 5.924-5.833 5.928l-.007.69z"/></svg>