<svg xmlns="http://www.w3.org/2000/svg" width="34" height="30" viewBox="0 0 34 30"><g fill="none" fill-rule="evenodd"><path stroke="#FFF" stroke-width="1.5" d="M13.622 14.75l-2.718 14.5h19.474l2.718-14.5H13.622zM1.807 26.459l2.67 2.377L16.192 8.54l-2.67-2.377L1.808 26.46z"/><path fill="#FFF" fill-rule="nonzero" d="M30.26 5h-2.5L29.135.417c.037-.122.027-.222-.027-.3C29.054.04 28.965 0 28.844 0h-2.5a.538.538 0 0 0-.335.117.58.58 0 0 0-.207.3L24.427 5h-2.5a.551.551 0 0 0-.469.26c-.119.166-.134.317-.045.456l2.916 4.167c.072.078.16.117.265.117a.619.619 0 0 0 .334-.117l5.4-4.154a.706.706 0 0 0 .224-.312c.036-.121.027-.221-.028-.3C30.47 5.04 30.382 5 30.26 5z"/></g></svg>